<mxfile host="Electron" agent="Mozilla/5.0 (Macintosh; Intel Mac OS X 10_15_7) AppleWebKit/537.36 (KHTML, like Gecko) draw.io/24.7.17 Chrome/128.0.6613.36 Electron/32.0.1 Safari/537.36" version="24.7.17">
  <diagram name="Pagina-1" id="KksSE64AORfsE_kvtci9">
    <mxGraphModel dx="1193" dy="776" grid="1" gridSize="10" guides="1" tooltips="1" connect="1" arrows="1" fold="1" page="1" pageScale="1" pageWidth="827" pageHeight="1169" math="0" shadow="0">
      <root>
        <mxCell id="0" />
        <mxCell id="1" parent="0" />
        <mxCell id="jH7eP_RZR7SqLj8uAPWz-1" value="" style="rounded=0;whiteSpace=wrap;html=1;fillColor=none;" vertex="1" parent="1">
          <mxGeometry x="50" y="330" width="710" height="510" as="geometry" />
        </mxCell>
        <mxCell id="jH7eP_RZR7SqLj8uAPWz-3" value="" style="rounded=0;whiteSpace=wrap;html=1;fillColor=none;" vertex="1" parent="1">
          <mxGeometry x="60" y="550" width="460" height="140" as="geometry" />
        </mxCell>
        <mxCell id="jH7eP_RZR7SqLj8uAPWz-4" value="" style="rounded=0;whiteSpace=wrap;html=1;fillColor=none;" vertex="1" parent="1">
          <mxGeometry x="350" y="370" width="400" height="160" as="geometry" />
        </mxCell>
        <mxCell id="jH7eP_RZR7SqLj8uAPWz-6" value="" style="rounded=0;whiteSpace=wrap;html=1;fillColor=none;" vertex="1" parent="1">
          <mxGeometry x="550" y="560" width="190" height="130" as="geometry" />
        </mxCell>
        <mxCell id="jH7eP_RZR7SqLj8uAPWz-10" value="" style="shape=flexArrow;endArrow=classic;html=1;rounded=0;exitX=0.387;exitY=0.86;exitDx=0;exitDy=0;exitPerimeter=0;" edge="1" parent="1">
          <mxGeometry width="50" height="50" relative="1" as="geometry">
            <mxPoint x="640" y="650" as="sourcePoint" />
            <mxPoint x="640.03" y="470" as="targetPoint" />
          </mxGeometry>
        </mxCell>
        <mxCell id="jH7eP_RZR7SqLj8uAPWz-11" value="Coated alluminium sheets&amp;nbsp;" style="text;html=1;align=center;verticalAlign=middle;whiteSpace=wrap;rounded=0;" vertex="1" parent="1">
          <mxGeometry x="660" y="610" width="60" height="30" as="geometry" />
        </mxCell>
        <mxCell id="jH7eP_RZR7SqLj8uAPWz-12" value="Lay - Up Room&amp;nbsp;" style="text;html=1;align=center;verticalAlign=middle;whiteSpace=wrap;rounded=0;" vertex="1" parent="1">
          <mxGeometry x="350" y="370" width="110" height="30" as="geometry" />
        </mxCell>
        <mxCell id="jH7eP_RZR7SqLj8uAPWz-14" value="" style="shape=flexArrow;endArrow=classic;html=1;rounded=0;exitX=0.387;exitY=0.86;exitDx=0;exitDy=0;exitPerimeter=0;" edge="1" parent="1">
          <mxGeometry width="50" height="50" relative="1" as="geometry">
            <mxPoint x="470" y="660" as="sourcePoint" />
            <mxPoint x="470.03" y="480" as="targetPoint" />
          </mxGeometry>
        </mxCell>
        <mxCell id="jH7eP_RZR7SqLj8uAPWz-16" value="" style="shape=flexArrow;endArrow=classic;html=1;rounded=0;exitX=0.387;exitY=0.86;exitDx=0;exitDy=0;exitPerimeter=0;" edge="1" parent="1">
          <mxGeometry width="50" height="50" relative="1" as="geometry">
            <mxPoint x="412" y="480" as="sourcePoint" />
            <mxPoint x="412" y="670" as="targetPoint" />
          </mxGeometry>
        </mxCell>
        <mxCell id="jH7eP_RZR7SqLj8uAPWz-17" value="Stacked tools" style="text;html=1;align=center;verticalAlign=middle;whiteSpace=wrap;rounded=0;" vertex="1" parent="1">
          <mxGeometry x="350" y="480" width="60" height="30" as="geometry" />
        </mxCell>
        <mxCell id="jH7eP_RZR7SqLj8uAPWz-19" value="Empty tools" style="text;html=1;align=center;verticalAlign=middle;whiteSpace=wrap;rounded=0;" vertex="1" parent="1">
          <mxGeometry x="470" y="600" width="60" height="30" as="geometry" />
        </mxCell>
        <mxCell id="jH7eP_RZR7SqLj8uAPWz-20" value="" style="triangle;whiteSpace=wrap;html=1;rotation=90;" vertex="1" parent="1">
          <mxGeometry x="100" y="610" width="60" height="80" as="geometry" />
        </mxCell>
        <mxCell id="jH7eP_RZR7SqLj8uAPWz-21" value="Tools" style="text;html=1;align=center;verticalAlign=middle;whiteSpace=wrap;rounded=0;" vertex="1" parent="1">
          <mxGeometry x="100" y="630" width="60" height="30" as="geometry" />
        </mxCell>
        <mxCell id="jH7eP_RZR7SqLj8uAPWz-22" value="" style="shape=flexArrow;endArrow=classic;html=1;rounded=0;exitX=0.387;exitY=0.86;exitDx=0;exitDy=0;exitPerimeter=0;" edge="1" parent="1">
          <mxGeometry width="50" height="50" relative="1" as="geometry">
            <mxPoint x="290" y="630" as="sourcePoint" />
            <mxPoint x="290.03" y="450" as="targetPoint" />
          </mxGeometry>
        </mxCell>
        <mxCell id="jH7eP_RZR7SqLj8uAPWz-23" value="" style="shape=flexArrow;endArrow=classic;html=1;rounded=0;exitX=0.387;exitY=0.86;exitDx=0;exitDy=0;exitPerimeter=0;" edge="1" parent="1">
          <mxGeometry width="50" height="50" relative="1" as="geometry">
            <mxPoint x="232" y="450" as="sourcePoint" />
            <mxPoint x="232" y="640" as="targetPoint" />
          </mxGeometry>
        </mxCell>
        <mxCell id="jH7eP_RZR7SqLj8uAPWz-24" value="Cured sheets" style="text;html=1;align=center;verticalAlign=middle;whiteSpace=wrap;rounded=0;" vertex="1" parent="1">
          <mxGeometry x="290" y="550" width="60" height="70" as="geometry" />
        </mxCell>
        <mxCell id="jH7eP_RZR7SqLj8uAPWz-25" value="Empty tools" style="text;html=1;align=center;verticalAlign=middle;whiteSpace=wrap;rounded=0;" vertex="1" parent="1">
          <mxGeometry x="170" y="460" width="60" height="30" as="geometry" />
        </mxCell>
        <mxCell id="jH7eP_RZR7SqLj8uAPWz-26" value="" style="rounded=0;whiteSpace=wrap;html=1;fillColor=none;" vertex="1" parent="1">
          <mxGeometry x="60" y="370" width="280" height="160" as="geometry" />
        </mxCell>
        <mxCell id="jH7eP_RZR7SqLj8uAPWz-27" value="" style="triangle;whiteSpace=wrap;html=1;rotation=90;" vertex="1" parent="1">
          <mxGeometry x="90" y="450" width="60" height="80" as="geometry" />
        </mxCell>
        <mxCell id="jH7eP_RZR7SqLj8uAPWz-28" value="Sheets" style="text;html=1;align=center;verticalAlign=middle;whiteSpace=wrap;rounded=0;" vertex="1" parent="1">
          <mxGeometry x="90" y="470" width="60" height="30" as="geometry" />
        </mxCell>
        <mxCell id="jH7eP_RZR7SqLj8uAPWz-30" value="Oven Room&amp;nbsp;" style="text;html=1;align=center;verticalAlign=middle;whiteSpace=wrap;rounded=0;" vertex="1" parent="1">
          <mxGeometry x="50" y="550" width="110" height="30" as="geometry" />
        </mxCell>
        <mxCell id="jH7eP_RZR7SqLj8uAPWz-31" value="Finished product room" style="text;html=1;align=center;verticalAlign=middle;whiteSpace=wrap;rounded=0;" vertex="1" parent="1">
          <mxGeometry x="25" y="370" width="210" height="30" as="geometry" />
        </mxCell>
        <mxCell id="jH7eP_RZR7SqLj8uAPWz-32" value="Coating Room" style="text;html=1;align=center;verticalAlign=middle;whiteSpace=wrap;rounded=0;" vertex="1" parent="1">
          <mxGeometry x="550" y="560" width="80" height="30" as="geometry" />
        </mxCell>
        <mxCell id="jH7eP_RZR7SqLj8uAPWz-35" value="GKN - Fokker" style="text;html=1;align=center;verticalAlign=middle;whiteSpace=wrap;rounded=0;" vertex="1" parent="1">
          <mxGeometry x="20" y="330" width="160" height="30" as="geometry" />
        </mxCell>
        <mxCell id="jH7eP_RZR7SqLj8uAPWz-36" value="" style="rounded=0;whiteSpace=wrap;html=1;fillColor=none;" vertex="1" parent="1">
          <mxGeometry x="90" y="700" width="280" height="130" as="geometry" />
        </mxCell>
        <mxCell id="jH7eP_RZR7SqLj8uAPWz-37" value="" style="shape=flexArrow;endArrow=classic;html=1;rounded=0;" edge="1" parent="1">
          <mxGeometry width="50" height="50" relative="1" as="geometry">
            <mxPoint x="257.38" y="660" as="sourcePoint" />
            <mxPoint x="257.38" y="740" as="targetPoint" />
          </mxGeometry>
        </mxCell>
        <mxCell id="jH7eP_RZR7SqLj8uAPWz-38" value="" style="shape=flexArrow;endArrow=classic;html=1;rounded=0;" edge="1" parent="1">
          <mxGeometry width="50" height="50" relative="1" as="geometry">
            <mxPoint x="291.38" y="730" as="sourcePoint" />
            <mxPoint x="291.38" y="660" as="targetPoint" />
          </mxGeometry>
        </mxCell>
        <mxCell id="jH7eP_RZR7SqLj8uAPWz-39" value="Scanning Room&amp;nbsp;" style="text;html=1;align=center;verticalAlign=middle;whiteSpace=wrap;rounded=0;" vertex="1" parent="1">
          <mxGeometry x="90" y="700" width="120" height="30" as="geometry" />
        </mxCell>
        <mxCell id="jH7eP_RZR7SqLj8uAPWz-40" value="Tools" style="text;html=1;align=center;verticalAlign=middle;whiteSpace=wrap;rounded=0;" vertex="1" parent="1">
          <mxGeometry x="290" y="700" width="60" height="30" as="geometry" />
        </mxCell>
        <mxCell id="jH7eP_RZR7SqLj8uAPWz-41" value="Tools" style="text;html=1;align=center;verticalAlign=middle;whiteSpace=wrap;rounded=0;" vertex="1" parent="1">
          <mxGeometry x="200" y="660" width="60" height="30" as="geometry" />
        </mxCell>
      </root>
    </mxGraphModel>
  </diagram>
</mxfile>
